<?xml version="1.0" standalone="no"?><!DOCTYPE svg PUBLIC "-//W3C//DTD SVG 1.1//EN" "http://www.w3.org/Graphics/SVG/1.1/DTD/svg11.dtd"><svg t="1599468983840" class="icon" viewBox="0 0 1024 1024" version="1.1" xmlns="http://www.w3.org/2000/svg" p-id="3979" xmlns:xlink="http://www.w3.org/1999/xlink" width="200" height="200"><defs><style type="text/css"></style></defs><path d="M511.958191 0.013652c-70.563845 0-137.032087 13.310713-199.319399 40.017465-62.372637 26.621427-116.724717 63.140563-163.056238 109.557409a513.230388 513.230388 0 0 0-109.557409 162.970913A501.882151 501.882151 0 0 0 0.00768 511.964163c0 70.563845 13.310713 137.032087 40.017465 199.3194 26.621427 62.372637 63.140563 116.724717 109.557409 163.056237 46.331521 46.416846 100.683601 82.935983 162.970913 109.55741 62.372637 26.706752 128.840879 40.017465 199.404724 40.017465 70.563845 0 137.032087-13.310713 199.3194-40.017465a513.230388 513.230388 0 0 0 163.056237-109.55741 513.230388 513.230388 0 0 0 109.55741-162.970912C1010.59799 648.910925 1023.908703 582.442684 1023.908703 511.964163c0-70.563845-13.310713-137.032087-40.017465-199.319399a513.230388 513.230388 0 0 0-109.55741-163.056238A513.230388 513.230388 0 0 0 711.362916 40.031117 501.882151 501.882151 0 0 0 511.958191 0.013652z m12.798763 819.120818a61.690037 61.690037 0 0 1-45.30762-18.686193 61.690037 61.690037 0 0 1-18.686194-45.307621c0-17.747618 6.228731-32.850158 18.686194-45.30762A61.690037 61.690037 0 0 1 524.756954 691.146842c17.065017-0.255975 33.447433 6.484706 45.307621 18.686194 12.201487 11.945512 18.942169 28.242603 18.686193 45.30762a61.690037 61.690037 0 0 1-18.686193 45.307621 61.690037 61.690037 0 0 1-45.307621 18.686193z m63.993814-287.972162a52.901553 52.901553 0 0 1-18.686193 40.78539 65.359015 65.359015 0 0 1-45.307621 16.809042 65.359015 65.359015 0 0 1-45.30762-16.809042 52.901553 52.901553 0 0 1-18.686194-40.78539v-268.774019a52.901553 52.901553 0 0 1 18.686194-40.785391 65.359015 65.359015 0 0 1 45.30762-16.809041c17.832943 0 32.935483 5.631456 45.307621 16.809041a52.901553 52.901553 0 0 1 18.686193 40.785391v268.774019z" fill="#F7BA2A" p-id="3980"></path></svg>